<svg width="61" height="61" viewBox="0 0 61 61" fill="none" xmlns="http://www.w3.org/2000/svg">
<path d="M0 30.2754C0 13.5548 13.5548 0 30.2754 0C46.9961 0 60.5509 13.5548 60.5509 30.2754C60.5509 46.9961 46.9961 60.5509 30.2754 60.5509C13.5548 60.5509 0 46.9961 0 30.2754Z" fill="#EF4035"/>
<path d="M30.2754 43.6087C37.6391 43.6087 43.6087 37.6391 43.6087 30.2754C43.6087 22.9116 37.6391 16.942 30.2754 16.942C22.9116 16.942 16.942 22.9116 16.942 30.2754C16.942 37.6391 22.9116 43.6087 30.2754 43.6087Z" stroke="white" stroke-width="2.66667" stroke-linecap="round" stroke-linejoin="round"/>
<path d="M30.2754 16.942C26.8517 20.5369 24.942 25.311 24.942 30.2754C24.942 35.2397 26.8517 40.0138 30.2754 43.6087C33.699 40.0138 35.6087 35.2397 35.6087 30.2754C35.6087 25.311 33.699 20.5369 30.2754 16.942Z" stroke="white" stroke-width="2.66667" stroke-linecap="round" stroke-linejoin="round"/>
<path d="M16.942 30.2754H43.6087" stroke="white" stroke-width="2.66667" stroke-linecap="round" stroke-linejoin="round"/>
</svg>
