<svg width="61" height="61" viewBox="0 0 61 61" fill="none" xmlns="http://www.w3.org/2000/svg">
<path d="M0 30.275C0 13.5546 13.5546 0 30.275 0C46.9954 0 60.55 13.5546 60.55 30.275C60.55 46.9954 46.9954 60.55 30.275 60.55C13.5546 60.55 0 46.9954 0 30.275Z" fill="#EF4035"/>
<path d="M18.2643 36.0644C18.4604 36.559 18.504 37.1008 18.3897 37.6204L16.9697 42.0071C16.9239 42.2295 16.9357 42.46 17.004 42.6766C17.0723 42.8932 17.1948 43.0888 17.3599 43.2448C17.525 43.4008 17.7271 43.512 17.9473 43.5679C18.1674 43.6239 18.3981 43.6227 18.6177 43.5644L23.1683 42.2337C23.6586 42.1365 24.1664 42.179 24.6337 42.3564C27.4808 43.686 30.7062 43.9673 33.7405 43.1507C36.7749 42.334 39.4234 40.4719 41.2186 37.8929C43.0138 35.3138 43.8405 32.1836 43.5527 29.0545C43.265 25.9253 41.8813 22.9984 39.6458 20.79C37.4102 18.5816 34.4666 17.2338 31.3342 16.9843C28.2017 16.7347 25.0818 17.5996 22.5249 19.4262C19.968 21.2528 18.1384 23.9238 17.3589 26.9679C16.5793 30.012 16.9 33.2337 18.2643 36.0644Z" stroke="white" stroke-width="2.66667" stroke-linecap="round" stroke-linejoin="round"/>
</svg>
