<svg width="61" height="61" viewBox="0 0 61 61" fill="none" xmlns="http://www.w3.org/2000/svg">
<path d="M0 30.275C0 13.5546 13.5546 0 30.275 0C46.9954 0 60.55 13.5546 60.55 30.275C60.55 46.9954 46.9954 60.55 30.275 60.55C13.5546 60.55 0 46.9954 0 30.275Z" fill="#EF4035"/>
<path d="M42.835 28.8376C43.0737 28.7323 43.2762 28.5593 43.4176 28.34C43.5589 28.1208 43.6328 27.8648 43.6301 27.604C43.6274 27.3431 43.5482 27.0887 43.4024 26.8724C43.2566 26.6561 43.0505 26.4873 42.8097 26.387L31.3817 21.1816C31.0342 21.0232 30.6569 20.9412 30.275 20.9412C29.8931 20.9412 29.5157 21.0232 29.1683 21.1816L17.7417 26.3816C17.5043 26.4856 17.3024 26.6565 17.1606 26.8734C17.0188 27.0903 16.9432 27.3438 16.9432 27.603C16.9432 27.8621 17.0188 28.1156 17.1606 28.3326C17.3024 28.5495 17.5043 28.7203 17.7417 28.8243L29.1683 34.035C29.5157 34.1934 29.8931 34.2754 30.275 34.2754C30.6569 34.2754 31.0342 34.1934 31.3817 34.035L42.835 28.8376Z" stroke="white" stroke-width="2.66667" stroke-linecap="round" stroke-linejoin="round"/>
<path d="M43.6084 27.6084V35.6084" stroke="white" stroke-width="2.66667" stroke-linecap="round" stroke-linejoin="round"/>
<path d="M22.275 30.9417V35.6083C22.275 36.6692 23.1179 37.6866 24.6182 38.4367C26.1185 39.1869 28.1533 39.6083 30.275 39.6083C32.3968 39.6083 34.4316 39.1869 35.9319 38.4367C37.4322 37.6866 38.275 36.6692 38.275 35.6083V30.9417" stroke="white" stroke-width="2.66667" stroke-linecap="round" stroke-linejoin="round"/>
</svg>
