<svg width="61" height="61" viewBox="0 0 61 61" fill="none" xmlns="http://www.w3.org/2000/svg">
<path d="M0 30.2754C0 13.5548 13.5548 0 30.2754 0C46.9961 0 60.5509 13.5548 60.5509 30.2754C60.5509 46.9961 46.9961 60.5509 30.2754 60.5509C13.5548 60.5509 0 46.9961 0 30.2754Z" fill="#EF4035"/>
<path d="M0.000488281 30.2755C0.000488281 13.5551 13.5551 0.000488281 30.2755 0.000488281C46.9959 0.000488281 60.5505 13.5551 60.5505 30.2755C60.5505 46.9959 46.9959 60.5505 30.2755 60.5505C13.5551 60.5505 0.000488281 46.9959 0.000488281 30.2755Z" fill="#EF4035"/>
<path d="M35.6088 40.9421V19.6088C35.6088 18.9016 35.3279 18.2233 34.8278 17.7232C34.3277 17.2231 33.6494 16.9421 32.9421 16.9421H27.6088C26.9016 16.9421 26.2233 17.2231 25.7232 17.7232C25.2231 18.2233 24.9421 18.9016 24.9421 19.6088V40.9421" stroke="white" stroke-width="2.66667" stroke-linecap="round" stroke-linejoin="round"/>
<path d="M40.9421 22.2755H19.6088C18.136 22.2755 16.9421 23.4694 16.9421 24.9422V38.2755C16.9421 39.7483 18.136 40.9422 19.6088 40.9422H40.9421C42.4149 40.9422 43.6088 39.7483 43.6088 38.2755V24.9422C43.6088 23.4694 42.4149 22.2755 40.9421 22.2755Z" stroke="white" stroke-width="2.66667" stroke-linecap="round" stroke-linejoin="round"/>
</svg>
